<svg width="32" height="32" viewBox="0 0 32 32" fill="current" xmlns="http://www.w3.org/2000/svg">
<path d="M26.6267 19.8133L25.8667 14.2666C25.2401 9.63994 21.6668 6.05328 17.3201 5.43994V4.01335C17.3201 3.28001 16.7201 2.68001 15.9868 2.68001C15.2534 2.68001 14.6534 3.28001 14.6534 4.01335V5.43994C10.3068 6.06661 6.76007 9.63994 6.12007 14.2666L5.36008 19.8133C5.16008 21.2533 5.58674 22.6933 6.5334 23.76C7.42674 24.7733 8.69342 25.3599 10.0267 25.3599H11.4268C11.7201 27.5866 13.6134 29.32 15.9201 29.32C18.2267 29.32 20.1201 27.5866 20.4134 25.3599H21.9201C23.2534 25.3599 24.5201 24.7733 25.4134 23.76C26.3601 22.68 26.7867 21.24 26.5867 19.8133H26.6267ZM15.9468 26.6667C15.1068 26.6667 14.4134 26.12 14.1601 25.3733H17.7334C17.4801 26.12 16.7868 26.6667 15.9468 26.6667ZM23.4401 22.0133C23.0534 22.4533 22.5201 22.7066 21.9468 22.7066H10.0401C9.46674 22.7066 8.94675 22.4667 8.54675 22.0133C8.12008 21.52 7.92007 20.84 8.0134 20.1733L8.77341 14.6266C9.28008 10.8533 12.3867 8 16.0001 8C19.6134 8 22.7067 10.8533 23.2267 14.6266L23.9868 20.1733C24.0801 20.84 23.8801 21.52 23.4534 22.0133H23.4401Z" fill="current"/>
</svg>
