<svg width="32" height="32" viewBox="0 0 32 32" fill="none" xmlns="http://www.w3.org/2000/svg">
<path d="M29.2668 8.68001C29.2001 8.53335 27.4934 5.23991 22.0267 5.23991C18.9867 5.23991 17.1334 6.29323 16.0801 7.22656C15.0001 6.2799 13.1067 5.22656 9.98673 5.22656C4.62673 5.22656 2.93341 8.53335 2.86674 8.68001L2.7334 8.95996V23.9066C2.7334 24.6799 3.10673 25.4 3.7334 25.8534C4.34673 26.2934 5.14677 26.4 5.85343 26.1466C6.82677 25.8 8.34676 25.3866 10.0134 25.3866C12.5601 25.3866 14.7068 26.2534 15.3068 26.52C15.5068 26.6134 15.7201 26.6533 15.9201 26.6533C15.9734 26.6533 16.0134 26.64 16.0667 26.6266C16.1201 26.6266 16.1867 26.6533 16.2401 26.6533C16.4401 26.6533 16.6534 26.6134 16.8534 26.52C17.4401 26.2534 19.5467 25.3999 22.0801 25.3999C23.7867 25.3999 25.3067 25.8 26.2934 26.1466C27.0001 26.3866 27.7867 26.28 28.4001 25.84C29.0267 25.4 29.4001 24.6666 29.4001 23.9066V8.94661L29.2534 8.66667L29.2668 8.68001ZM14.7601 23.4666C13.5468 23.08 11.8934 22.7199 10.0267 22.7199C8.16007 22.7199 6.57341 23.1066 5.41341 23.48V9.66667C5.81341 9.14667 7.08008 7.90658 10.0001 7.90658C13.0667 7.90658 14.3734 9.17335 14.7601 9.68001V23.4666ZM26.7467 23.4933C25.5734 23.12 23.9334 22.7466 22.0934 22.7466C20.2534 22.7466 18.6267 23.1066 17.4401 23.48V9.68001C17.8267 9.16001 19.0801 7.91992 22.0401 7.91992C25.0001 7.91992 26.3601 9.17335 26.7467 9.68001V23.5067V23.4933Z" fill="#676A71"/>
</svg>
