<svg width="32" height="32" viewBox="0 0 32 32" fill="none" xmlns="http://www.w3.org/2000/svg">
<path d="M26.4535 13.1066C26.4535 7.34661 21.7602 2.65332 16.0002 2.65332C10.2402 2.65332 5.54688 7.34661 5.54688 13.1066C5.54688 16.8266 7.56019 20.2399 10.7335 22.1066L10.7069 24.1066C10.7069 26.9999 13.0535 29.3467 15.9469 29.3467C18.8402 29.3467 21.1869 26.9999 21.1869 24.1066V22.16C24.4002 20.3067 26.4535 16.8666 26.4535 13.1066V13.1066ZM18.5202 24.1066C18.5202 25.5199 17.3602 26.68 15.9469 26.68C14.5335 26.68 13.3735 25.5199 13.3735 24.1066V22.72H18.5202V24.1066ZM19.5202 20.0533H17.3335V13.3467C17.3335 12.6133 16.7335 12.0133 16.0002 12.0133C15.2669 12.0133 14.6669 12.6133 14.6669 13.3467V20.0533H12.4802C9.88018 18.7333 8.21354 16.0399 8.21354 13.1066C8.21354 8.81327 11.7069 5.31999 16.0002 5.31999C20.2935 5.31999 23.7869 8.81327 23.7869 13.1066C23.7869 16.0399 22.1202 18.7333 19.5202 20.0533Z" fill="#676A71"/>
</svg>
