<svg width="32" height="32" viewBox="0 0 32 32" fill="current" xmlns="http://www.w3.org/2000/svg">
<path d="M15.9995 18.6533C14.9862 18.6533 14.1729 19.4666 14.1729 20.48C14.1729 21.4933 14.9862 22.3066 15.9995 22.3066C17.0128 22.3066 17.8262 21.4933 17.8262 20.48C17.8262 19.4666 17.0128 18.6533 15.9995 18.6533Z" fill="current"/>
<path d="M21.5997 12H21.333V8C21.333 5.05333 18.9463 2.66667 15.9997 2.66667C13.053 2.66667 10.6663 5.05333 10.6663 8V12H10.3997C7.59966 12 5.33301 14.28 5.33301 17.0667V24.2533C5.33301 27.0533 7.61299 29.32 10.3997 29.32H21.5863C24.3863 29.32 26.653 27.04 26.653 24.2533V17.0667C26.653 14.2667 24.373 12 21.5863 12H21.5997ZM13.333 8C13.333 6.53333 14.533 5.33333 15.9997 5.33333C17.4663 5.33333 18.6663 6.53333 18.6663 8V12H13.333V8ZM23.9997 24.2667C23.9997 25.5867 22.9197 26.6667 21.5997 26.6667H10.413C9.093 26.6667 8.01302 25.5867 8.01302 24.2667V17.08C8.01302 15.76 9.093 14.68 10.413 14.68H21.5997C22.9197 14.68 23.9997 15.76 23.9997 17.08V24.2667Z" fill="current"/>
</svg>
