<svg width="32" height="32" viewBox="0 0 32 32" fill="current" xmlns="http://www.w3.org/2000/svg">
<path d="M18.6667 20C17.9333 20 17.3333 20.6 17.3333 21.3333V22.6667C17.3333 24.1067 16.4133 25.3333 15.3333 25.3333H8.66667C7.58667 25.3333 6.66667 24.1067 6.66667 22.6667V9.33333C6.66667 7.89333 7.58667 6.66667 8.66667 6.66667H15.3333C16.4133 6.66667 17.3333 7.89333 17.3333 9.33333V10.6667C17.3333 11.4 17.9333 12 18.6667 12C19.4 12 20 11.4 20 10.6667V9.33333C20 6.38667 17.9067 4 15.3333 4H8.66667C6.09333 4 4 6.38667 4 9.33333V22.6667C4 25.6133 6.09333 28 8.66667 28H15.3333C17.9067 28 20 25.6133 20 22.6667V21.3333C20 20.6 19.4 20 18.6667 20Z" fill="current"/>
<path d="M27.9997 16C27.9997 15.8134 27.9597 15.6267 27.8797 15.4667C27.7997 15.2533 27.693 15.0667 27.533 14.9067L23.5197 10.9067C22.9997 10.3867 22.1597 10.3867 21.6397 10.9067C21.1197 11.4267 21.1197 12.2666 21.6397 12.7866L23.5197 14.6533H10.6663C9.93301 14.6533 9.33301 15.2533 9.33301 15.9867C9.33301 16.72 9.93301 17.32 10.6663 17.32H23.5197L21.653 19.1866C21.133 19.7066 21.133 20.5467 21.653 21.0667C21.9197 21.3333 22.253 21.4533 22.5997 21.4533C22.9464 21.4533 23.2797 21.32 23.5463 21.0667L27.5463 17.08C27.7063 16.92 27.8264 16.72 27.893 16.52C27.9597 16.36 28.013 16.1733 28.013 15.9867L27.9997 16Z" fill="current"/>
</svg>
