<svg width="32" height="32" viewBox="0 0 32 32" fill="none" xmlns="http://www.w3.org/2000/svg">
<path d="M26.4132 24.4667L22.5465 20.6C23.9998 18.7333 24.7865 16.4533 24.7865 14.0533C24.7865 11.1867 23.6665 8.49334 21.6398 6.46667C17.4665 2.28 10.6532 2.28 6.47984 6.46667C2.29318 10.6533 2.29318 17.4533 6.47984 21.6267C8.50651 23.6533 11.1998 24.7733 14.0665 24.7733C16.4932 24.7733 18.7998 23.96 20.6665 22.4933L24.5332 26.36C24.7998 26.6267 25.1332 26.7467 25.4798 26.7467C25.8265 26.7467 26.1598 26.6133 26.4265 26.36C26.9465 25.84 26.9465 25 26.4265 24.48L26.4132 24.4667ZM8.35984 19.7467C5.21318 16.6 5.21318 11.4933 8.35984 8.36C9.93318 6.78667 11.9998 6 14.0532 6C16.1065 6 18.1732 6.78667 19.7465 8.36C21.3198 9.93333 22.1065 11.9067 22.1065 14.0533C22.1065 16.2 21.2665 18.2267 19.7465 19.7467C18.2265 21.2667 16.1998 22.1067 14.0532 22.1067C11.9065 22.1067 9.87984 21.2667 8.35984 19.7467V19.7467Z" fill="#676A71"/>
</svg>
