<svg width="32" height="32" viewBox="0 0 32 32" fill="current" xmlns="http://www.w3.org/2000/svg">
<path d="M16.0003 14.6667C19.307 14.6667 22.0003 11.9733 22.0003 8.66667C22.0003 5.36 19.307 2.66667 16.0003 2.66667C12.6937 2.66667 10.0003 5.36 10.0003 8.66667C10.0003 11.9733 12.6937 14.6667 16.0003 14.6667ZM16.0003 5.33333C17.8403 5.33333 19.3337 6.82667 19.3337 8.66667C19.3337 10.5067 17.8403 12 16.0003 12C14.1603 12 12.667 10.5067 12.667 8.66667C12.667 6.82667 14.1603 5.33333 16.0003 5.33333Z" fill="current"/>
<path d="M20.0003 16H12.0003C9.05366 16 6.66699 18.3867 6.66699 21.3333V22.6667C6.66699 25.6133 9.05366 28 12.0003 28H20.0003C22.947 28 25.3337 25.6133 25.3337 22.6667V21.3333C25.3337 18.3867 22.947 16 20.0003 16ZM22.667 22.6667C22.667 24.1333 21.467 25.3333 20.0003 25.3333H12.0003C10.5337 25.3333 9.33366 24.1333 9.33366 22.6667V21.3333C9.33366 19.8667 10.5337 18.6667 12.0003 18.6667H20.0003C21.467 18.6667 22.667 19.8667 22.667 21.3333V22.6667Z" fill="current"/>
</svg>
