<svg width="32" height="32" viewBox="0 0 32 32" fill="none" xmlns="http://www.w3.org/2000/svg">
<path d="M28.8271 14.72C28.6138 14.5067 24.0138 10.3067 22.6004 9.02667C22.0538 8.53334 21.2138 8.57335 20.7204 9.12002C20.2271 9.66668 20.2671 10.5067 20.8138 11C22.0404 12.12 23.5871 13.5333 24.8271 14.6667H7.25376C8.9071 13.0933 10.8671 11.2133 10.8671 11.2133C11.4004 10.7067 11.4138 9.86667 10.9071 9.33334C10.4004 8.8 9.56041 8.78667 9.02708 9.29334C7.29375 10.9467 3.25375 14.8133 3.16042 14.9067C2.88042 15.1867 2.72044 15.5467 2.68044 15.9334C2.64044 16.4267 2.81378 16.9067 3.18711 17.2667C3.38711 17.4667 7.81377 21.5067 9.17377 22.7333C9.4271 22.96 9.74708 23.08 10.0671 23.08C10.4271 23.08 10.7871 22.9333 11.0538 22.64C11.5471 22.0933 11.5071 21.2533 10.9604 20.76C9.81376 19.72 8.37375 18.4 7.20042 17.3333H24.7604C23.0271 18.9867 20.9071 21.0133 20.9071 21.0133C20.3738 21.52 20.3604 22.36 20.8671 22.8934C21.1338 23.1734 21.4804 23.3067 21.8271 23.3067C22.1604 23.3067 22.4938 23.1867 22.7471 22.9334C24.5471 21.2134 28.7604 17.1867 28.8538 17.0933C29.4271 16.5067 29.5738 15.4667 28.8138 14.72H28.8271Z" fill="#676A71"/>
</svg>
