<svg width="32" height="32" viewBox="0 0 32 32" fill="none" xmlns="http://www.w3.org/2000/svg">
<path d="M22.6667 5.33333V4C22.6667 3.26667 22.0667 2.66667 21.3333 2.66667C20.6 2.66667 20 3.26667 20 4V5.33333H12V4C12 3.26667 11.4 2.66667 10.6667 2.66667C9.93333 2.66667 9.33333 3.26667 9.33333 4V5.33333C6.38667 5.33333 4 7.72 4 10.6667V22.6667C4 25.6133 6.38667 28 9.33333 28H22.6667C25.6133 28 28 25.6133 28 22.6667V10.6667C28 7.72 25.6133 5.33333 22.6667 5.33333ZM25.3333 22.6667C25.3333 24.1333 24.1333 25.3333 22.6667 25.3333H9.33333C7.86667 25.3333 6.66667 24.1333 6.66667 22.6667V10.6667C6.66667 9.2 7.86667 8 9.33333 8V9.33333C9.33333 10.0667 9.93333 10.6667 10.6667 10.6667C11.4 10.6667 12 10.0667 12 9.33333V8H20V9.33333C20 10.0667 20.6 10.6667 21.3333 10.6667C22.0667 10.6667 22.6667 10.0667 22.6667 9.33333V8C24.1333 8 25.3333 9.2 25.3333 10.6667V22.6667Z" fill="#676A71"/>
<path d="M12.9467 15.0667C12.4533 14.5733 11.5467 14.5733 11.0533 15.0667C10.9333 15.1867 10.84 15.3333 10.7733 15.4933C10.7067 15.6667 10.6667 15.84 10.6667 16.0133C10.6667 16.1866 10.7067 16.36 10.7733 16.52C10.84 16.68 10.9333 16.8267 11.0533 16.9467C11.3067 17.2 11.6533 17.3466 12 17.3466C12.1733 17.3466 12.3467 17.3067 12.5067 17.24C12.6667 17.1733 12.8133 17.08 12.9467 16.9467C13.0667 16.8267 13.16 16.68 13.2267 16.52C13.3067 16.36 13.3333 16.1866 13.3333 16.0133C13.3333 15.84 13.3067 15.6667 13.2267 15.4933C13.16 15.3333 13.0667 15.1867 12.9467 15.0667Z" fill="#676A71"/>
<path d="M12.9467 19.0667C12.88 19 12.8133 18.9467 12.7467 18.9067C12.6667 18.8533 12.5867 18.8133 12.5067 18.7733C12.4267 18.7467 12.3467 18.72 12.2667 18.7067C12.0933 18.6667 11.9067 18.6667 11.7467 18.7067C11.6533 18.7067 11.5733 18.7467 11.4933 18.7733C11.4133 18.8133 11.3333 18.8533 11.2667 18.9067C11.1867 18.9467 11.12 19 11.0533 19.0667C10.9333 19.1867 10.84 19.3333 10.7733 19.4933C10.7067 19.6667 10.6667 19.8267 10.6667 20.0133C10.6667 20.3733 10.8133 20.7067 11.0533 20.9467C11.3067 21.2 11.6533 21.3466 12 21.3466C12.3467 21.3466 12.6933 21.2 12.9467 20.9467C13.2 20.7067 13.3333 20.3733 13.3333 20.0133C13.3333 19.8267 13.2933 19.6667 13.2267 19.4933C13.16 19.3333 13.0667 19.1867 12.9467 19.0667Z" fill="#676A71"/>
<path d="M16.9467 15.0667C16.88 15 16.8133 14.9466 16.7467 14.8933C16.6667 14.8533 16.5867 14.8133 16.5067 14.7733C16.4267 14.7467 16.3467 14.72 16.2667 14.7067C16 14.6533 15.7333 14.68 15.4933 14.7733C15.3333 14.84 15.1867 14.9467 15.0533 15.0667C14.9333 15.1867 14.84 15.3333 14.7733 15.4933C14.7067 15.6667 14.6667 15.84 14.6667 16.0133C14.6667 16.1866 14.7067 16.36 14.7733 16.52C14.84 16.68 14.9333 16.8267 15.0533 16.9467C15.1867 17.08 15.3333 17.1733 15.4933 17.24C15.6533 17.3067 15.8267 17.3466 16 17.3466C16.1733 17.3466 16.3467 17.3067 16.5067 17.24C16.6667 17.1733 16.8133 17.08 16.9467 16.9467C17.0667 16.8267 17.16 16.68 17.2267 16.52C17.3067 16.36 17.3333 16.1866 17.3333 16.0133C17.3333 15.84 17.3067 15.6667 17.2267 15.4933C17.16 15.3333 17.0667 15.1867 16.9467 15.0667Z" fill="#676A71"/>
<path d="M16.9467 19.0666C16.8267 18.9466 16.68 18.84 16.5067 18.7733C16.1867 18.64 15.8133 18.64 15.4933 18.7733C15.3333 18.84 15.1867 18.9466 15.0533 19.0666C14.9333 19.1866 14.84 19.3333 14.7733 19.4933C14.7067 19.6666 14.6667 19.8266 14.6667 20.0133C14.6667 20.1866 14.7067 20.36 14.7733 20.52C14.84 20.68 14.9333 20.8266 15.0533 20.9466C15.1867 21.08 15.3333 21.1733 15.4933 21.24C15.6533 21.3066 15.8267 21.3466 16 21.3466C16.36 21.3466 16.6933 21.2 16.9467 20.9466C17.0667 20.8266 17.16 20.68 17.24 20.52C17.3067 20.36 17.3333 20.1866 17.3333 20.0133C17.3333 19.84 17.3067 19.6666 17.2267 19.4933C17.16 19.3333 17.0667 19.1866 16.9467 19.0666Z" fill="#676A71"/>
<path d="M20.9467 15.0666C20.8267 14.9466 20.68 14.84 20.5067 14.7733C20.0133 14.5733 19.4267 14.6933 19.0533 15.0666C18.9333 15.1866 18.84 15.3333 18.7733 15.4933C18.7067 15.6666 18.6667 15.84 18.6667 16.0133C18.6667 16.1866 18.7067 16.36 18.7733 16.52C18.84 16.68 18.9333 16.8266 19.0533 16.9466C19.1867 17.08 19.3333 17.1733 19.4933 17.24C19.6533 17.3066 19.8267 17.3466 20 17.3466C20.1733 17.3466 20.3467 17.3066 20.5067 17.24C20.6667 17.1733 20.8133 17.08 20.9467 16.9466C21.0667 16.8266 21.16 16.68 21.2267 16.52C21.3067 16.36 21.3333 16.1866 21.3333 16.0133C21.3333 15.84 21.3067 15.6666 21.2267 15.4933C21.16 15.3333 21.0667 15.1866 20.9467 15.0666Z" fill="#676A71"/>
<path d="M20.9467 19.0667C20.88 19 20.8133 18.9467 20.7467 18.9067C20.6667 18.8533 20.5867 18.8133 20.5067 18.7733C20.4267 18.7467 20.3467 18.72 20.2667 18.7067C20.0933 18.6667 19.9067 18.6667 19.7467 18.7067C19.6533 18.7067 19.5733 18.7467 19.4933 18.7733C19.4133 18.8133 19.3333 18.8533 19.2667 18.9067C19.1867 18.9467 19.12 19 19.0533 19.0667C18.9333 19.1867 18.84 19.3333 18.7733 19.4933C18.7067 19.6667 18.6667 19.8267 18.6667 20.0133C18.6667 20.3733 18.8133 20.7067 19.0533 20.9467C19.3067 21.2 19.6533 21.3466 20 21.3466C20.3467 21.3466 20.6933 21.2 20.9467 20.9467C21.2 20.7067 21.3333 20.3733 21.3333 20.0133C21.3333 19.8267 21.2933 19.6667 21.2267 19.4933C21.16 19.3333 21.0667 19.1867 20.9467 19.0667Z" fill="#676A71"/>
</svg>
