<svg width="32" height="32" viewBox="0 0 32 32" fill="current" xmlns="http://www.w3.org/2000/svg">
<path d="M14.7999 23.48C14.9865 23.6666 15.2132 23.7866 15.4532 23.8666C15.6265 23.9466 15.8132 24 16.0132 24C16.2132 24 16.3999 23.9466 16.5599 23.8666C16.7999 23.7866 17.0265 23.6666 17.2132 23.48L24.2132 16.4666C24.7332 15.9466 24.7332 15.1067 24.2132 14.5867C23.6932 14.0667 22.8532 14.0667 22.3332 14.5867L17.3599 19.5867V4.01335C17.3599 3.28001 16.7732 2.68001 16.0265 2.68001C15.2799 2.68001 14.6932 3.28001 14.6932 4.01335V19.5867L9.70652 14.5999C9.18652 14.0799 8.34652 14.0799 7.82652 14.5999C7.30652 15.1199 7.30652 15.96 7.82652 16.48L14.8265 23.4933L14.7999 23.48Z" fill="current"/>
<path d="M25.333 24C24.5997 24 23.9997 24.6 23.9997 25.3333C23.9997 26.2133 23.1997 26.68 22.453 26.68H9.51967C8.75967 26.68 7.99967 26.2133 7.99967 25.3333C7.99967 24.6 7.39967 24 6.66634 24C5.93301 24 5.33301 24.6 5.33301 25.3333C5.33301 27.5867 7.17301 29.3467 9.51967 29.3467H22.453C24.813 29.3467 26.6663 27.5867 26.6663 25.3333C26.6663 24.6 26.0663 24 25.333 24Z" fill="current"/>
</svg>
