<svg width="32" height="32" viewBox="0 0 32 32" fill="current" xmlns="http://www.w3.org/2000/svg">
<path d="M28.0802 12.64C25.4535 9.49333 21.2402 5.73333 16.0135 5.73333C15.0135 5.73333 13.9868 5.88 12.9735 6.16C12.2668 6.36 11.8535 7.09333 12.0535 7.8C12.2535 8.50666 12.9869 8.92 13.6935 8.72C14.4669 8.50667 15.2535 8.38667 16.0135 8.38667C20.4135 8.38667 24.1735 12.1067 26.0269 14.3333C26.8669 15.3467 26.8802 16.7733 26.0669 17.7867C25.7469 18.1867 25.3869 18.6 24.9869 19.0267C24.4802 19.56 24.5069 20.4133 25.0402 20.9067C25.2935 21.1467 25.6269 21.2667 25.9602 21.2667C26.3202 21.2667 26.6668 21.12 26.9335 20.8533C27.3868 20.3733 27.7869 19.9067 28.1469 19.4667C29.7602 17.48 29.7335 14.6 28.0935 12.6267L28.0802 12.64Z" fill="current"/>
<path d="M10.7335 8.85333C10.6935 8.74667 10.6668 8.64 10.6002 8.53334C10.4268 8.28 10.1868 8.13333 9.93351 8.04L7.61352 5.72C7.09352 5.2 6.24018 5.2 5.73352 5.72C5.21352 6.24 5.21352 7.08 5.73352 7.6L7.36018 9.22666C6.18685 10.1733 5.05352 11.2933 3.94685 12.6C2.28019 14.5733 2.22685 17.36 3.81351 19.3867C5.82685 21.9467 10.0802 26.2533 15.9602 26.2533C18.1868 26.2533 20.3735 25.6133 22.4935 24.4L24.3602 26.28C24.6269 26.5467 24.9602 26.6667 25.3068 26.6667C25.6535 26.6667 25.9868 26.5333 26.2535 26.28C26.7735 25.76 26.7735 24.92 26.2535 24.4L10.7335 8.85333ZM13.4269 15.3333L16.6668 18.5733C16.4535 18.6267 16.2268 18.6667 16.0002 18.6667C14.5335 18.6667 13.3335 17.4667 13.3335 16C13.3335 15.7733 13.3735 15.5467 13.4269 15.3333ZM15.9469 23.6C11.2002 23.6 7.61351 19.9333 5.89351 17.7467C5.09351 16.7333 5.12018 15.32 5.96018 14.3333C7.01351 13.08 8.10684 12.0133 9.22684 11.1467L11.4135 13.3333C10.9335 14.1467 10.6535 15.0533 10.6535 16.0133C10.6535 18.96 13.0402 21.3467 15.9869 21.3467C16.9335 21.3467 17.8535 21.0667 18.6535 20.6L20.5069 22.4667C19.0002 23.2267 17.4668 23.6133 15.9335 23.6133L15.9469 23.6Z" fill="current"/>
</svg>
