<svg width="32" height="32" viewBox="0 0 32 32" fill="current" xmlns="http://www.w3.org/2000/svg">
<path d="M26.8402 11.6133L20.2669 5.03996C19.6002 4.37329 18.6935 4 17.7469 4H11.8936C7.48022 4 3.89355 7.58667 3.89355 12V20C3.89355 24.4133 7.48022 28 11.8936 28H19.8936C24.3069 28 27.8936 24.4133 27.8936 20V14.1466C27.8936 13.2 27.5202 12.2933 26.8536 11.6266L26.8402 11.6133ZM19.5469 8.09334L23.8002 12.3467H21.6802C20.5069 12.3467 19.5469 11.4533 19.5469 10.3467V8.09334ZM19.8802 25.32H11.8802C8.93354 25.32 6.54688 22.9333 6.54688 19.9867V11.9867C6.54688 9.03999 8.93354 6.65332 11.8802 6.65332H16.8669V10.3467C16.8669 12.92 19.0269 15.0133 21.6669 15.0133H25.2002V19.9867C25.2002 22.9333 22.8135 25.32 19.8669 25.32H19.8802Z" fill="current"/>
</svg>
